<svg xmlns="http://www.w3.org/2000/svg" viewBox="0 0 1250 360">
<rect width="1250" height="360" rx="40" fill="#f8fbfe"/>
<text x="55" y="70" font-family="Arial" font-size="34" font-weight="900" fill="#0b2a4a">De documentenstroom ontstaat stap voor stap</text>
<g font-family="Arial" font-weight="900" font-size="18" fill="#0b2a4a">
<rect x="60" y="145" width="150" height="75" rx="20" fill="#fff" stroke="#39b8b2" stroke-width="4"/><text x="77" y="190">Prijsaanvraag</text>
<rect x="245" y="145" width="125" height="75" rx="20" fill="#fff" stroke="#39b8b2" stroke-width="4"/><text x="278" y="190">Offerte</text>
<rect x="405" y="145" width="130" height="75" rx="20" fill="#fff" stroke="#39b8b2" stroke-width="4"/><text x="429" y="190">Bestelbon</text>
<rect x="570" y="145" width="180" height="75" rx="20" fill="#fff" stroke="#39b8b2" stroke-width="4"/><text x="587" y="190">Orderbevestiging</text>
<rect x="785" y="145" width="155" height="75" rx="20" fill="#fff" stroke="#39b8b2" stroke-width="4"/><text x="804" y="190">Leveringsbon</text>
<rect x="975" y="145" width="115" height="75" rx="20" fill="#fff" stroke="#39b8b2" stroke-width="4"/><text x="1004" y="190">Factuur</text>
<rect x="1120" y="145" width="90" height="75" rx="20" fill="#fff" stroke="#39b8b2" stroke-width="4"/><text x="1135" y="190">Betaling</text>
</g>
<g stroke="#0067c5" stroke-width="7" stroke-linecap="round">
<path d="M215 183 H240"/><path d="M375 183 H400"/><path d="M540 183 H565"/><path d="M755 183 H780"/><path d="M945 183 H970"/><path d="M1095 183 H1115"/>
</g>
</svg>